<?xml version="1.0" standalone="no"?>
<!DOCTYPE svg PUBLIC "-//W3C//DTD SVG 20010904//EN"
 "http://www.w3.org/TR/2001/REC-SVG-20010904/DTD/svg10.dtd">
<svg version="1.0" xmlns="http://www.w3.org/2000/svg"
 width="190.000000pt" height="130.000000pt" viewBox="0 0 190.000000 130.000000"
 preserveAspectRatio="xMidYMid meet">

<g transform="translate(0.000000,130.000000) scale(0.100000,-0.100000)"
fill="#000000" stroke="none">
<path d="M510 650 l0 -431 48 3 47 3 0 425 0 425 -47 3 -48 3 0 -431z"/>
<path d="M134 841 c-54 -14 -92 -48 -104 -93 -15 -56 -8 -68 39 -68 36 0 42 4
57 35 21 44 73 61 134 45 45 -12 60 -33 60 -83 0 -46 -19 -60 -135 -101 -122
-43 -150 -69 -160 -148 -9 -71 8 -130 45 -162 60 -50 203 -57 282 -13 62 34
68 58 68 289 0 227 -6 250 -72 284 -37 19 -163 28 -214 15z m184 -478 c-11
-41 -33 -53 -98 -53 -61 0 -100 30 -100 79 0 45 36 78 120 109 l75 28 6 -66
c3 -36 2 -80 -3 -97z"/>
<path d="M692 581 l3 -269 25 -27 c44 -47 78 -59 170 -60 99 0 151 20 181 69
17 28 19 54 19 294 l0 262 -50 0 -50 0 0 -249 0 -250 -26 -20 c-39 -31 -117
-29 -149 4 l-25 24 0 246 0 245 -51 0 -50 0 3 -269z"/>
<path d="M1282 837 c-45 -14 -88 -58 -96 -98 -3 -17 -6 -141 -6 -275 l0 -244
50 0 50 0 0 249 0 250 26 20 c18 14 41 21 70 21 48 0 50 1 59 53 l7 37 -63 -1
c-35 -1 -79 -6 -97 -12z"/>
<path d="M1591 841 c-50 -13 -84 -43 -100 -88 -20 -56 -11 -73 39 -73 36 0 42
4 57 35 26 55 106 69 171 29 17 -11 22 -24 22 -58 0 -56 -13 -67 -135 -110
-65 -23 -108 -44 -122 -61 -54 -62 -54 -186 1 -241 79 -79 295 -63 341 26 12
23 15 70 15 237 0 233 -5 254 -72 289 -37 20 -164 28 -217 15z m199 -386 c0
-66 -17 -122 -40 -135 -10 -5 -42 -10 -70 -10 -81 0 -120 54 -89 124 11 24 38
39 134 74 59 22 65 17 65 -53z"/>
</g>
</svg>
